<?xml version="1.0" standalone="no"?><!DOCTYPE svg PUBLIC "-//W3C//DTD SVG 1.1//EN" "http://www.w3.org/Graphics/SVG/1.1/DTD/svg11.dtd"><svg t="1647396010553" class="icon" viewBox="0 0 1024 1024" version="1.1" xmlns="http://www.w3.org/2000/svg" p-id="14016" xmlns:xlink="http://www.w3.org/1999/xlink" width="200" height="200"><defs><style type="text/css"></style></defs><path d="M1005.5 351.5c-18.2-26.5-48.3-42.4-80.5-42.4l0.1 0.1h-42.6l-14.1-57.8c-10.4-44.6-50-76.2-95.7-76.4H485.5c-7.1 0-14-2.4-19.6-6.7l-98.7-75c-16.8-12.9-37.4-20-58.6-20.1H100c-55.1 0.8-99.2 45.9-98.7 101v661.3c-0.8 4.7-1.2 9.4-1.2 14.1-0.7 55.1 43.3 100.4 98.4 101.2h684.1c42.9-0.3 80.7-28.2 93.6-69.1l142.5-438.3c10.3-30.9 5.4-65-13.2-91.9zM67 174.2c0-18.3 14.7-33.2 33-33.6H308.8c7.1 0 14 2.4 19.5 6.7l98.3 75.2c16.8 12.8 37.4 19.8 58.5 19.9h287.3c15.3 0.1 28.5 10.7 32 25.6l9.9 41.1H269.5c-40.8 0.2-77.2 25.6-91.4 63.8L67 657.9V174.2z m889.5 246.9L813.9 859.2c-3.9 14.1-16.7 24-31.3 24.3H98.5c-17-0.5-30.9-13.8-32.2-30.7 0.1-1.1 0.1-2.2 0-3.3V837l170.6-438.1c4.6-13 16.7-21.7 30.5-21.9h657.8c8.8 0 17.1 3.6 23.3 9.9 8.6 9.1 11.7 22.2 8 34.2z" p-id="14017"></path><path d="M956.4 421.4c0-0.1 0.1-0.2 0.1-0.3h-0.1v0.3z" p-id="14018"></path></svg>