<?xml version="1.0" standalone="no"?><!DOCTYPE svg PUBLIC "-//W3C//DTD SVG 1.1//EN" "http://www.w3.org/Graphics/SVG/1.1/DTD/svg11.dtd"><svg t="1649381910120" class="icon" viewBox="0 0 1024 1024" version="1.1" xmlns="http://www.w3.org/2000/svg" p-id="2828" xmlns:xlink="http://www.w3.org/1999/xlink" width="200" height="200"><defs><style type="text/css">@font-face { font-family: feedback-iconfont; src: url("//at.alicdn.com/t/font_1031158_u69w8yhxdu.woff2?t=1630033759944") format("woff2"), url("//at.alicdn.com/t/font_1031158_u69w8yhxdu.woff?t=1630033759944") format("woff"), url("//at.alicdn.com/t/font_1031158_u69w8yhxdu.ttf?t=1630033759944") format("truetype"); }
</style></defs><path d="M512 402.8c-90 0-163.4 72.8-163.4 162.096 0 89.304 73.4 162.104 163.4 162.104s163.4-72.8 163.4-162.104C675.4 475.6 602 402.8 512 402.8z m0 288.496c-70.6 0-128.696-57.696-128.696-127.8S440 435.696 512 435.696s128.8 57.696 128.8 127.8c-0.096 71.504-58.2 127.8-128.8 127.8z" fill="#3891F9" p-id="2829"></path><path d="M827.6 279.104h-73.4c-24.904 0-45.704-12.4-58.104-33l-33.2-56.304c-18-31.6-49.8-49.504-85.8-49.504h-128.8c-37.4 0-69.2 17.896-87.2 49.504l-33.2 56.304c-12.504 20.6-33.2 33-58.096 33H196.4c-55.4 0-99.696 44-99.696 98.896 0 136 0 272 1.4 406.704 0 55 44.296 98.896 99.696 98.896h464a15.84 15.84 0 0 0 15.808-15.808 15.84 15.84 0 0 0-15.808-15.8H196.4c-36 0-66.504-30.2-66.504-67.296V378c0-35.696 30.504-65.896 66.504-65.896h70.6c37.4 0 69.2-17.904 87.2-49.504l33.2-56.304c12.504-20.6 33.2-33 58.104-33h128.704c24.896 0 45.696 12.4 58.096 33l33.2 56.304c19.4 31.6 49.8 49.504 87.2 49.504h73.4c36 0 66.504 30.2 66.504 65.896v238.504c0 9.6 7.696 17.296 17.296 17.296s17.304-7.696 17.304-17.296V378c0.088-54.896-44.208-98.896-99.608-98.896z" fill="" p-id="2830"></path><path d="M911.504 754.6h-81.6v-81.6a15.84 15.84 0 0 0-15.8-15.8 15.84 15.84 0 0 0-15.808 15.8v81.6H716.704a15.84 15.84 0 0 0-15.808 15.8 15.84 15.84 0 0 0 15.808 15.808h81.592v81.592a15.84 15.84 0 0 0 15.808 15.808 15.84 15.84 0 0 0 15.8-15.808v-81.6h81.6a15.84 15.84 0 0 0 15.8-15.808 15.84 15.84 0 0 0-15.8-15.792z" fill="" p-id="2831"></path></svg>