<?xml version="1.0" standalone="no"?><!DOCTYPE svg PUBLIC "-//W3C//DTD SVG 1.1//EN" "http://www.w3.org/Graphics/SVG/1.1/DTD/svg11.dtd"><svg t="1638180789840" class="icon" viewBox="0 0 1024 1024" version="1.1" xmlns="http://www.w3.org/2000/svg" p-id="1634" xmlns:xlink="http://www.w3.org/1999/xlink" width="200" height="200"><defs><style type="text/css"></style></defs><path d="M510.965949 522.366092c98.688673 0 178.703031-80.044034 178.703031-178.703031 0-98.719372-80.014358-178.704055-178.703031-178.704055s-178.703031 79.984682-178.703031 178.704055C332.262918 442.323081 412.278299 522.366092 510.965949 522.366092z" p-id="1635"></path><path d="M843.730799 706.247052c-52.643987-50.319036-187.654914-94.528933-341.606215-94.528933-153.950278 0-281.288454 44.209898-333.875137 94.528933-12.158924 11.634991-14.515598 27.689642-14.515598 44.443212l0 111.292736 345.225649 0 370.065384 0 0-111.292736C869.025904 733.935672 855.830371 717.821669 843.730799 706.247052z" p-id="1636"></path></svg>